<svg xmlns="http://www.w3.org/2000/svg" width="240" height="240" viewBox="-44.7 -38.5 116.2 116.2"><defs><linearGradient id="g0" x1="0" x2="1"><stop offset="0" stop-color="#deb04a"/><stop offset="0.55" stop-color="#d9a531"/><stop offset="1" stop-color="#9c7723"/></linearGradient><linearGradient id="g1" x1="0" x2="1"><stop offset="0" stop-color="#deb04a"/><stop offset="0.55" stop-color="#d9a531"/><stop offset="1" stop-color="#9c7723"/></linearGradient><linearGradient id="g2" x1="0" x2="1"><stop offset="0" stop-color="#deb04a"/><stop offset="0.55" stop-color="#d9a531"/><stop offset="1" stop-color="#9c7723"/></linearGradient><linearGradient id="g3" x1="0" x2="1"><stop offset="0" stop-color="#deb04a"/><stop offset="0.55" stop-color="#d9a531"/><stop offset="1" stop-color="#9c7723"/></linearGradient></defs><path d="M-39.7 19.8 L17.9 48.6 L17.9 38.6 L-39.7 9.8 Z" fill="#6b2f2a" stroke="#2b1d14" stroke-width="1.7" stroke-linejoin="round"/><path d="M57.6 28.8 L17.9 48.6 L17.9 38.6 L57.6 18.8 Z" fill="#562622" stroke="#2b1d14" stroke-width="1.7" stroke-linejoin="round"/><path d="M0.0 -10.0 L57.6 18.8 L17.9 38.6 L-39.7 9.8 Z" fill="#804c48" stroke="#2b1d14" stroke-width="1.7" stroke-linejoin="round"/><path d="M0.0 -7.4 L25.6 1.4 L-9.0 18.6 L-34.6 9.8 Z" fill="#fbf5e6" stroke="#2b1d14" stroke-width="1.7" stroke-linejoin="round"/><path d="M26.9 2.0 L52.5 18.8 L17.9 36.1 L-7.7 19.3 Z" fill="#f1e6cc" stroke="#2b1d14" stroke-width="1.7" stroke-linejoin="round"/><path d="M-1.3 -5.0 L16.6 2.5" fill="none" stroke="#9a8a72" stroke-width="1.4" stroke-linecap="round" stroke-linejoin="round"/><path d="M25.6 7.0 L43.5 18.4" fill="none" stroke="#9a8a72" stroke-width="1.4" stroke-linecap="round" stroke-linejoin="round"/><path d="M-7.0 -2.1 L10.9 5.4" fill="none" stroke="#9a8a72" stroke-width="1.4" stroke-linecap="round" stroke-linejoin="round"/><path d="M19.8 9.9 L37.8 21.3" fill="none" stroke="#9a8a72" stroke-width="1.4" stroke-linecap="round" stroke-linejoin="round"/><path d="M-12.8 0.8 L5.1 8.3" fill="none" stroke="#9a8a72" stroke-width="1.4" stroke-linecap="round" stroke-linejoin="round"/><path d="M14.1 12.7 L32.0 24.2" fill="none" stroke="#9a8a72" stroke-width="1.4" stroke-linecap="round" stroke-linejoin="round"/><path d="M-18.6 3.7 L-0.6 11.1" fill="none" stroke="#9a8a72" stroke-width="1.4" stroke-linecap="round" stroke-linejoin="round"/><path d="M8.3 15.6 L26.2 27.1" fill="none" stroke="#9a8a72" stroke-width="1.4" stroke-linecap="round" stroke-linejoin="round"/><path d="M-24.3 6.6 L-6.4 14.0" fill="none" stroke="#9a8a72" stroke-width="1.4" stroke-linecap="round" stroke-linejoin="round"/><path d="M2.6 18.5 L20.5 30.0" fill="none" stroke="#9a8a72" stroke-width="1.4" stroke-linecap="round" stroke-linejoin="round"/><path d="M-6.4 27.6 L35.2 27.2" fill="none" stroke="#2b2b33" stroke-width="4" stroke-linecap="round" stroke-linejoin="round"/><path d="M44.8 43.8 L44.8 36.8 A10.9 5.4 0 0 0 66.5 36.8 L66.5 43.8 A10.9 5.4 0 0 1 44.8 43.8 Z" fill="url(#g0)" stroke="#2b1d14" stroke-width="1.7"/><ellipse cx="55.7" cy="36.8" rx="10.9" ry="5.4" fill="#f3d27a" stroke="#2b1d14" stroke-width="1.7"/><path d="M44.8 36.8 L44.8 29.8 A10.9 5.4 0 0 0 66.5 29.8 L66.5 36.8 A10.9 5.4 0 0 1 44.8 36.8 Z" fill="url(#g1)" stroke="#2b1d14" stroke-width="1.7"/><ellipse cx="55.7" cy="29.8" rx="10.9" ry="5.4" fill="#f3d27a" stroke="#2b1d14" stroke-width="1.7"/><path d="M44.8 29.8 L44.8 22.8 A10.9 5.4 0 0 0 66.5 22.8 L66.5 29.8 A10.9 5.4 0 0 1 44.8 29.8 Z" fill="url(#g2)" stroke="#2b1d14" stroke-width="1.7"/><ellipse cx="55.7" cy="22.8" rx="10.9" ry="5.4" fill="#f3d27a" stroke="#2b1d14" stroke-width="1.7"/><path d="M44.8 22.8 L44.8 15.8 A10.9 5.4 0 0 0 66.5 15.8 L66.5 22.8 A10.9 5.4 0 0 1 44.8 22.8 Z" fill="url(#g3)" stroke="#2b1d14" stroke-width="1.7"/><ellipse cx="55.7" cy="15.8" rx="10.9" ry="5.4" fill="#f3d27a" stroke="#2b1d14" stroke-width="1.7"/></svg>
