<svg xmlns="http://www.w3.org/2000/svg" width="240" height="240" viewBox="0 0 120 120">
<defs><linearGradient id="br" x1="0" y1="0" x2="0" y2="1"><stop offset="0" stop-color="#e09a3c"/><stop offset="1" stop-color="#8a4a14"/></linearGradient>
<clipPath id="sn"><path d="M38 30 Q24 60 40 80 Q60 96 80 80 Q96 60 82 30 Z"/></clipPath></defs>
<ellipse cx="60" cy="108" rx="40" ry="6" fill="#000" opacity="0.22"/>
<ellipse cx="60" cy="104" rx="22" ry="5" fill="#cfe3e0" opacity="0.5" stroke="#cfe3e0" stroke-width="2"/>
<rect x="57" y="86" width="6" height="18" fill="#cfe3e0" opacity="0.75"/>
<g clip-path="url(#sn)"><rect x="20" y="20" width="80" height="80" fill="#dfeff0" opacity="0.15"/><rect x="20" y="62" width="80" height="40" fill="url(#br)"/><ellipse cx="60" cy="62" rx="40" ry="5" fill="#f0b45a"/></g>
<path d="M38 30 Q24 60 40 80 Q60 96 80 80 Q96 60 82 30 Z" fill="none" stroke="#cfe3e0" stroke-width="3"/>
<path d="M36 50 Q36 66 44 74" stroke="#fff" stroke-opacity="0.55" stroke-width="4" stroke-linecap="round" fill="none"/>
</svg>
