<svg xmlns="http://www.w3.org/2000/svg" width="104" height="180" viewBox="-26.4 -75.2 52.2 89.8"><path d="M-21.8 -22.0 L-17.3 -19.8 L-17.3 -53.8 L-21.8 -56.0 Z" fill="#5a3a2a" stroke="#2b1d14" stroke-width="1.7" stroke-linejoin="round"/><path d="M4.5 -30.6 L-17.3 -19.8 L-17.3 -53.8 L4.5 -64.6 Z" fill="#482e22" stroke="#2b1d14" stroke-width="1.7" stroke-linejoin="round"/><path d="M0.0 -66.9 L4.5 -64.6 L-17.3 -53.8 L-21.8 -56.0 Z" fill="#715648" stroke="#2b1d14" stroke-width="1.7" stroke-linejoin="round"/><path d="M-22.4 -52.3 L-16.6 -49.4 L-16.6 -57.4 L-22.4 -60.3 Z" fill="#624435" stroke="#2b1d14" stroke-width="1.7" stroke-linejoin="round"/><path d="M5.1 -60.3 L-16.6 -49.4 L-16.6 -57.4 L5.1 -68.3 Z" fill="#4e362a" stroke="#2b1d14" stroke-width="1.7" stroke-linejoin="round"/><path d="M-0.6 -71.2 L5.1 -68.3 L-16.6 -57.4 L-22.4 -60.3 Z" fill="#785e51" stroke="#2b1d14" stroke-width="1.7" stroke-linejoin="round"/><path d="M-3.2 -9.0 L0.0 -7.4 L0.0 -29.4 L-3.2 -31.0 Z" fill="#513426" stroke="#2b1d14" stroke-width="1.7" stroke-linejoin="round"/><path d="M3.2 -9.0 L0.0 -7.4 L0.0 -29.4 L3.2 -31.0 Z" fill="#412a1e" stroke="#2b1d14" stroke-width="1.7" stroke-linejoin="round"/><path d="M0.0 -32.6 L3.2 -31.0 L0.0 -29.4 L-3.2 -31.0 Z" fill="#695044" stroke="#2b1d14" stroke-width="1.7" stroke-linejoin="round"/><path d="M14.7 0.0 L17.9 1.6 L17.9 -20.4 L14.7 -22.0 Z" fill="#513426" stroke="#2b1d14" stroke-width="1.7" stroke-linejoin="round"/><path d="M21.1 0.0 L17.9 1.6 L17.9 -20.4 L21.1 -22.0 Z" fill="#412a1e" stroke="#2b1d14" stroke-width="1.7" stroke-linejoin="round"/><path d="M17.9 -23.6 L21.1 -22.0 L17.9 -20.4 L14.7 -22.0 Z" fill="#695044" stroke="#2b1d14" stroke-width="1.7" stroke-linejoin="round"/><path d="M-3.2 9.0 L0.0 10.6 L0.0 -11.4 L-3.2 -13.0 Z" fill="#513426" stroke="#2b1d14" stroke-width="1.7" stroke-linejoin="round"/><path d="M3.2 9.0 L0.0 10.6 L0.0 -11.4 L3.2 -13.0 Z" fill="#412a1e" stroke="#2b1d14" stroke-width="1.7" stroke-linejoin="round"/><path d="M0.0 -14.6 L3.2 -13.0 L0.0 -11.4 L-3.2 -13.0 Z" fill="#695044" stroke="#2b1d14" stroke-width="1.7" stroke-linejoin="round"/><path d="M-21.1 0.0 L-17.9 1.6 L-17.9 -20.4 L-21.1 -22.0 Z" fill="#513426" stroke="#2b1d14" stroke-width="1.7" stroke-linejoin="round"/><path d="M-14.7 0.0 L-17.9 1.6 L-17.9 -20.4 L-14.7 -22.0 Z" fill="#412a1e" stroke="#2b1d14" stroke-width="1.7" stroke-linejoin="round"/><path d="M-17.9 -23.6 L-14.7 -22.0 L-17.9 -20.4 L-21.1 -22.0 Z" fill="#695044" stroke="#2b1d14" stroke-width="1.7" stroke-linejoin="round"/><path d="M-21.8 -22.0 L0.0 -11.1 L0.0 -16.1 L-21.8 -27.0 Z" fill="#5a3a2a" stroke="#2b1d14" stroke-width="1.7" stroke-linejoin="round"/><path d="M21.8 -22.0 L0.0 -11.1 L0.0 -16.1 L21.8 -27.0 Z" fill="#482e22" stroke="#2b1d14" stroke-width="1.7" stroke-linejoin="round"/><path d="M0.0 -37.9 L21.8 -27.0 L0.0 -16.1 L-21.8 -27.0 Z" fill="#715648" stroke="#2b1d14" stroke-width="1.7" stroke-linejoin="round"/><path d="M-17.9 -27.0 L0.0 -18.0 L0.0 -22.0 L-17.9 -31.0 Z" fill="#7a2236" stroke="#2b1d14" stroke-width="1.7" stroke-linejoin="round"/><path d="M17.9 -27.0 L0.0 -18.0 L0.0 -22.0 L17.9 -31.0 Z" fill="#621b2b" stroke="#2b1d14" stroke-width="1.7" stroke-linejoin="round"/><path d="M0.0 -40.0 L17.9 -31.0 L0.0 -22.0 L-17.9 -31.0 Z" fill="#8d4152" stroke="#2b1d14" stroke-width="1.7" stroke-linejoin="round"/></svg>
