<svg xmlns="http://www.w3.org/2000/svg" width="2358" height="1285" viewBox="264.8 164.8 1179.2 642.4"><path d="M275.2 246.4 L1388.8 803.2 L1388.8 757.2 L275.2 200.4 Z" fill="#6a4a30" stroke="#2b1d14" stroke-width="1.7" stroke-linejoin="round"/><path d="M1433.6 780.8 L1388.8 803.2 L1388.8 757.2 L1433.6 734.8 Z" fill="#553b26" stroke="#2b1d14" stroke-width="1.7" stroke-linejoin="round"/><path d="M320.0 178.0 L1433.6 734.8 L1388.8 757.2 L275.2 200.4 Z" fill="#7f634d" stroke="#2b1d14" stroke-width="1.7" stroke-linejoin="round"/><path d="M279.7 240.6 L302.7 252.2 L302.7 224.2 L279.7 212.6 Z" fill="#765841" stroke="#45301f" stroke-width="1.1" stroke-linejoin="round"/><path d="M311.7 256.6 L334.7 268.2 L334.7 240.2 L311.7 228.6 Z" fill="#765841" stroke="#45301f" stroke-width="1.1" stroke-linejoin="round"/><path d="M343.7 272.6 L366.7 284.2 L366.7 256.2 L343.7 244.6 Z" fill="#765841" stroke="#45301f" stroke-width="1.1" stroke-linejoin="round"/><path d="M375.7 288.6 L398.7 300.2 L398.7 272.2 L375.7 260.6 Z" fill="#765841" stroke="#45301f" stroke-width="1.1" stroke-linejoin="round"/><path d="M407.7 304.6 L430.7 316.2 L430.7 288.2 L407.7 276.6 Z" fill="#765841" stroke="#45301f" stroke-width="1.1" stroke-linejoin="round"/><path d="M439.7 320.6 L462.7 332.2 L462.7 304.2 L439.7 292.6 Z" fill="#765841" stroke="#45301f" stroke-width="1.1" stroke-linejoin="round"/><path d="M471.7 336.6 L494.7 348.2 L494.7 320.2 L471.7 308.6 Z" fill="#765841" stroke="#45301f" stroke-width="1.1" stroke-linejoin="round"/><path d="M503.7 352.6 L526.7 364.2 L526.7 336.2 L503.7 324.6 Z" fill="#765841" stroke="#45301f" stroke-width="1.1" stroke-linejoin="round"/><path d="M535.7 368.6 L558.7 380.2 L558.7 352.2 L535.7 340.6 Z" fill="#765841" stroke="#45301f" stroke-width="1.1" stroke-linejoin="round"/><path d="M567.7 384.6 L590.7 396.2 L590.7 368.2 L567.7 356.6 Z" fill="#765841" stroke="#45301f" stroke-width="1.1" stroke-linejoin="round"/><path d="M599.7 400.6 L622.7 412.2 L622.7 384.2 L599.7 372.6 Z" fill="#765841" stroke="#45301f" stroke-width="1.1" stroke-linejoin="round"/><path d="M631.7 416.6 L654.7 428.2 L654.7 400.2 L631.7 388.6 Z" fill="#765841" stroke="#45301f" stroke-width="1.1" stroke-linejoin="round"/><path d="M663.7 432.6 L686.7 444.2 L686.7 416.2 L663.7 404.6 Z" fill="#765841" stroke="#45301f" stroke-width="1.1" stroke-linejoin="round"/><path d="M695.7 448.6 L718.7 460.2 L718.7 432.2 L695.7 420.6 Z" fill="#765841" stroke="#45301f" stroke-width="1.1" stroke-linejoin="round"/><path d="M727.7 464.6 L750.7 476.2 L750.7 448.2 L727.7 436.6 Z" fill="#765841" stroke="#45301f" stroke-width="1.1" stroke-linejoin="round"/><path d="M759.7 480.6 L782.7 492.2 L782.7 464.2 L759.7 452.6 Z" fill="#765841" stroke="#45301f" stroke-width="1.1" stroke-linejoin="round"/><path d="M791.7 496.6 L814.7 508.2 L814.7 480.2 L791.7 468.6 Z" fill="#765841" stroke="#45301f" stroke-width="1.1" stroke-linejoin="round"/><path d="M823.7 512.6 L846.7 524.2 L846.7 496.2 L823.7 484.6 Z" fill="#765841" stroke="#45301f" stroke-width="1.1" stroke-linejoin="round"/><path d="M855.7 528.6 L878.7 540.2 L878.7 512.2 L855.7 500.6 Z" fill="#765841" stroke="#45301f" stroke-width="1.1" stroke-linejoin="round"/><path d="M887.7 544.6 L910.7 556.2 L910.7 528.2 L887.7 516.6 Z" fill="#765841" stroke="#45301f" stroke-width="1.1" stroke-linejoin="round"/><path d="M919.7 560.6 L942.7 572.2 L942.7 544.2 L919.7 532.6 Z" fill="#765841" stroke="#45301f" stroke-width="1.1" stroke-linejoin="round"/><path d="M951.7 576.6 L974.7 588.2 L974.7 560.2 L951.7 548.6 Z" fill="#765841" stroke="#45301f" stroke-width="1.1" stroke-linejoin="round"/><path d="M983.7 592.6 L1006.7 604.2 L1006.7 576.2 L983.7 564.6 Z" fill="#765841" stroke="#45301f" stroke-width="1.1" stroke-linejoin="round"/><path d="M1015.7 608.6 L1038.7 620.2 L1038.7 592.2 L1015.7 580.6 Z" fill="#765841" stroke="#45301f" stroke-width="1.1" stroke-linejoin="round"/><path d="M1047.7 624.6 L1070.7 636.2 L1070.7 608.2 L1047.7 596.6 Z" fill="#765841" stroke="#45301f" stroke-width="1.1" stroke-linejoin="round"/><path d="M1079.7 640.6 L1102.7 652.2 L1102.7 624.2 L1079.7 612.6 Z" fill="#765841" stroke="#45301f" stroke-width="1.1" stroke-linejoin="round"/><path d="M1111.7 656.6 L1134.7 668.2 L1134.7 640.2 L1111.7 628.6 Z" fill="#765841" stroke="#45301f" stroke-width="1.1" stroke-linejoin="round"/><path d="M1143.7 672.6 L1166.7 684.2 L1166.7 656.2 L1143.7 644.6 Z" fill="#765841" stroke="#45301f" stroke-width="1.1" stroke-linejoin="round"/><path d="M1175.7 688.6 L1198.7 700.2 L1198.7 672.2 L1175.7 660.6 Z" fill="#765841" stroke="#45301f" stroke-width="1.1" stroke-linejoin="round"/><path d="M1207.7 704.6 L1230.7 716.2 L1230.7 688.2 L1207.7 676.6 Z" fill="#765841" stroke="#45301f" stroke-width="1.1" stroke-linejoin="round"/><path d="M1239.7 720.6 L1262.7 732.2 L1262.7 704.2 L1239.7 692.6 Z" fill="#765841" stroke="#45301f" stroke-width="1.1" stroke-linejoin="round"/><path d="M1271.7 736.6 L1294.7 748.2 L1294.7 720.2 L1271.7 708.6 Z" fill="#765841" stroke="#45301f" stroke-width="1.1" stroke-linejoin="round"/><path d="M1303.7 752.6 L1326.7 764.2 L1326.7 736.2 L1303.7 724.6 Z" fill="#765841" stroke="#45301f" stroke-width="1.1" stroke-linejoin="round"/><path d="M1335.7 768.6 L1358.7 780.2 L1358.7 752.2 L1335.7 740.6 Z" fill="#765841" stroke="#45301f" stroke-width="1.1" stroke-linejoin="round"/><path d="M268.8 200.4 L1388.8 760.4 L1388.8 754.4 L268.8 194.4 Z" fill="#c9a24a" stroke="#2b1d14" stroke-width="1.7" stroke-linejoin="round"/><path d="M1440.0 734.8 L1388.8 760.4 L1388.8 754.4 L1440.0 728.8 Z" fill="#a1823b" stroke="#2b1d14" stroke-width="1.7" stroke-linejoin="round"/><path d="M320.0 168.8 L1440.0 728.8 L1388.8 754.4 L268.8 194.4 Z" fill="#d1af63" stroke="#2b1d14" stroke-width="1.7" stroke-linejoin="round"/><rect x="352.8" y="187.6" width="24" height="7" rx="2" fill="#c9ced3" stroke="#2b1d14" stroke-width="1.2"/><path d="M356.8 194.6 l0 10" stroke="#2b1d14" stroke-width="3"/><path d="M356.8 194.6 l0 10" stroke="#e8e4dc" stroke-width="1.6"/><circle cx="356.8" cy="183.6" r="3" fill="#c0392b" stroke="#2b1d14" stroke-width="1"/><path d="M364.8 194.6 l0 10" stroke="#2b1d14" stroke-width="3"/><path d="M364.8 194.6 l0 10" stroke="#e8e4dc" stroke-width="1.6"/><circle cx="364.8" cy="183.6" r="3" fill="#f0c040" stroke="#2b1d14" stroke-width="1"/><path d="M372.8 194.6 l0 10" stroke="#2b1d14" stroke-width="3"/><path d="M372.8 194.6 l0 10" stroke="#e8e4dc" stroke-width="1.6"/><circle cx="372.8" cy="183.6" r="3" fill="#2f7a4a" stroke="#2b1d14" stroke-width="1"/><path d="M1320.4 701.6 L1322.4 685.6 L1346.4 685.6 L1348.4 701.6 Z" fill="#3a3a44" stroke="#2b1d14" stroke-width="1.2"/><rect x="1325.4" y="675.6" width="18" height="10" fill="#9fd8b0" stroke="#2b1d14" stroke-width="1.2"/><path d="M429.0 247.8 L435.0 247.8 L434.4 256.8 L429.6 256.8 Z" fill="#e8f2f4" fill-opacity="0.7" stroke="#2b1d14" stroke-width="1"/><path d="M461.0 263.8 L467.0 263.8 L466.4 272.8 L461.6 272.8 Z" fill="#e8f2f4" fill-opacity="0.7" stroke="#2b1d14" stroke-width="1"/><path d="M493.0 279.8 L499.0 279.8 L498.4 288.8 L493.6 288.8 Z" fill="#e8f2f4" fill-opacity="0.7" stroke="#2b1d14" stroke-width="1"/></svg>
